<svg width="611" height="600" viewBox="0 0 611 600" fill="none" xmlns="http://www.w3.org/2000/svg">
<path d="M462.044 315.796H407.996V327.572H462.044V315.796Z" fill="#F0F0F0"/>
<path d="M322.57 0H89.6455V134.282H322.57V0Z" fill="#E6E6E6"/>
<path d="M274.944 71.6553H120.295V76.191H274.944V71.6553Z" fill="#F0F0F0"/>
<path d="M285.599 88.5679H120.295V93.5185H285.599V88.5679Z" fill="#F0F0F0"/>
<path d="M285.599 105.68H120.295V110.631H285.599V105.68Z" fill="#F0F0F0"/>
<path d="M174.343 47.0884H120.295V58.864H174.343V47.0884Z" fill="#F0F0F0"/>
<path d="M322.57 0H89.6455V21.6054H322.57V0Z" fill="#E0E0E0"/>
<path d="M303.862 18.2715C303.562 17.9997 306.566 14.3654 310.556 10.1874C314.546 6.00941 318.05 2.8473 318.336 3.13347C318.622 3.41963 315.633 7.0396 311.643 11.2176C307.653 15.3956 304.149 18.5291 303.862 18.2715Z" fill="white"/>
<path d="M318.336 18.2716C318.05 18.5578 314.561 15.41 310.556 11.2177C306.551 7.02537 303.562 3.4197 303.863 3.13354C304.163 2.84738 307.638 5.99517 311.643 10.1875C315.647 14.3798 318.637 17.9998 318.336 18.2716Z" fill="white"/>
<path d="M196.668 203.019H31.3643V207.97H196.668V203.019Z" fill="#F0F0F0"/>
<path d="M196.668 220.132H31.3643V225.082H196.668V220.132Z" fill="#F0F0F0"/>
<path d="M504.82 280.541H229.791V526.87H504.82V280.541Z" fill="#E6E6E6"/>
<path d="M243.623 202.947H28.1758V426.885H243.623V202.947Z" fill="#F0F0F0"/>
<path d="M243.623 202.947H28.1758V227.343H243.623V202.947Z" fill="#E0E0E0"/>
<path d="M45.9671 214.895C45.9279 215.779 45.6299 216.633 45.11 217.35C44.5902 218.066 43.8714 218.615 43.0429 218.926C42.2144 219.238 41.3127 219.299 40.4496 219.103C39.5865 218.907 38.8 218.461 38.1879 217.821C37.5757 217.182 37.1647 216.376 37.0059 215.505C36.8471 214.634 36.9476 213.735 37.2948 212.921C37.6419 212.106 38.2205 211.412 38.9588 210.923C39.6971 210.435 40.5625 210.174 41.4476 210.173C42.6717 210.203 43.8341 210.716 44.6809 211.601C45.5277 212.486 45.9901 213.67 45.9671 214.895Z" fill="white"/>
<path d="M64.3157 214.895C64.2792 215.783 63.9823 216.642 63.4618 217.363C62.9414 218.085 62.2204 218.637 61.3886 218.951C60.5568 219.266 59.6509 219.329 58.7837 219.132C57.9165 218.935 57.1262 218.488 56.5112 217.846C55.8962 217.203 55.4836 216.394 55.3248 215.518C55.166 214.643 55.2681 213.74 55.6182 212.923C55.9683 212.105 56.551 211.408 57.2939 210.919C58.0368 210.43 58.907 210.171 59.7962 210.173C61.0202 210.203 62.1827 210.716 63.0295 211.601C63.8763 212.486 64.3387 213.67 64.3157 214.895Z" fill="white"/>
<path d="M82.6653 214.895C82.6288 215.783 82.3319 216.642 81.8114 217.363C81.291 218.085 80.57 218.637 79.7382 218.951C78.9064 219.266 78.0005 219.329 77.1333 219.132C76.2661 218.935 75.4758 218.488 74.8608 217.846C74.2458 217.203 73.8332 216.394 73.6744 215.518C73.5156 214.643 73.6177 213.74 73.9678 212.923C74.3179 212.105 74.9007 211.408 75.6435 210.919C76.3864 210.43 77.2566 210.171 78.1458 210.173C79.3699 210.203 80.5323 210.716 81.3791 211.601C82.2259 212.486 82.6883 213.67 82.6653 214.895Z" fill="white"/>
<path d="M580.235 48.9771H305.206V323.208H580.235V48.9771Z" fill="#F0F0F0"/>
<path d="M580.235 48.9771H305.206V81.099H580.235V48.9771Z" fill="#E0E0E0"/>
<path d="M328.632 64.7163C328.582 65.884 328.19 67.0113 327.505 67.958C326.819 68.9047 325.871 69.6292 324.778 70.0416C323.685 70.454 322.494 70.536 321.355 70.2775C320.216 70.019 319.177 69.4314 318.369 68.5876C317.56 67.7438 317.017 66.681 316.807 65.5312C316.597 64.3814 316.729 63.1952 317.187 62.1199C317.645 61.0446 318.409 60.1275 319.383 59.4826C320.358 58.8377 321.5 58.4933 322.668 58.4922C324.283 58.5297 325.817 59.2057 326.935 60.3722C328.053 61.5387 328.663 63.1007 328.632 64.7163Z" fill="white"/>
<path d="M351.045 60.5094C351.837 61.3708 352.359 62.4466 352.545 63.6027C352.732 64.7588 352.573 65.9442 352.091 67.011C351.608 68.0778 350.823 68.979 349.832 69.6023C348.841 70.2256 347.688 70.5433 346.518 70.516C345.348 70.4887 344.212 70.1175 343.251 69.4487C342.29 68.7799 341.547 67.843 341.115 66.7548C340.683 65.6666 340.58 64.4752 340.82 63.329C341.06 62.1828 341.631 61.1326 342.463 60.3091C343.629 59.1995 345.187 58.5974 346.795 58.635C348.404 58.6725 349.932 59.3466 351.045 60.5094Z" fill="white"/>
<path d="M376.947 64.7163C376.896 65.884 376.504 67.0113 375.819 67.958C375.134 68.9047 374.186 69.6292 373.092 70.0416C371.999 70.454 370.809 70.536 369.669 70.2775C368.53 70.019 367.492 69.4314 366.683 68.5876C365.875 67.7438 365.332 66.681 365.122 65.5312C364.912 64.3814 365.044 63.1952 365.502 62.1199C365.96 61.0446 366.723 60.1275 367.698 59.4826C368.672 58.8377 369.814 58.4933 370.983 58.4922C372.598 58.5297 374.132 59.2057 375.249 60.3722C376.367 61.5387 376.978 63.1007 376.947 64.7163Z" fill="white"/>
<path d="M520.825 599.628C520.825 599.828 421.511 600 299.042 600C176.573 600 77.2168 599.828 77.2168 599.628C77.2168 599.428 176.516 599.256 299.042 599.256C421.568 599.256 520.825 599.442 520.825 599.628Z" fill="#263238"/>
<path d="M424.057 424.467C401.961 409.028 396.955 380.369 397.827 354.6C397.97 350.307 397.498 345.757 399.544 341.994C401.589 338.231 406.366 335.642 410.213 337.444C413.402 338.947 414.79 342.667 416.577 345.743C418.963 349.84 422.458 353.179 426.66 355.373C429.392 356.803 432.782 357.662 435.485 356.174C439.203 354.128 439.632 349.02 439.604 344.727C439.604 336.743 439.556 328.769 439.461 320.804C439.204 316.527 439.638 312.237 440.748 308.098C442.078 304.035 445.039 300.272 449.086 299.127C453.134 297.982 458.182 300.343 459.098 304.521C459.255 306.291 459.298 308.069 459.226 309.844C459.341 311.632 460.17 313.593 461.844 314.136C463.517 314.68 465.262 313.435 466.549 312.176C470.954 307.884 473.957 302.289 476.746 296.766C479.535 291.243 482.267 285.563 486.272 280.855C490.276 276.148 495.811 272.414 502.004 272.056C508.197 271.698 514.647 275.504 516.192 281.514C517.736 287.523 514.232 293.661 510.471 298.54C504.795 305.783 498.104 312.168 490.605 317.499C489.141 318.298 487.973 319.547 487.273 321.061C486.343 323.923 489.046 326.785 491.864 327.686C495.053 328.745 498.514 328.416 501.875 328.817C505.236 329.217 508.812 330.677 510.084 333.824C511.829 338.203 508.168 342.781 504.578 345.786C497.37 351.796 489.185 356.524 480.379 359.765C477.233 360.91 473.929 361.926 471.383 364.129C468.837 366.333 467.321 370.182 468.852 373.201C470.382 376.22 474.315 377.178 477.619 376.563C480.923 375.948 483.854 374.174 487.001 372.986C492.879 370.768 500.459 371.169 504.163 376.248C505.311 377.998 506.037 379.99 506.286 382.068C506.534 384.146 506.297 386.253 505.594 388.224C504.162 392.147 501.959 395.742 499.115 398.798C489.748 409.995 477.577 418.502 463.846 423.451C450.216 428.173 437.587 429.46 424.043 424.495" fill="#139E10"/>
<path d="M509.899 275.59C509.899 275.59 509.77 275.733 509.484 275.99L508.211 277.121C507.095 278.122 505.451 279.582 503.377 281.513C497.497 286.975 492.037 292.872 487.044 299.155C483.855 303.119 480.551 307.612 477.032 312.491C473.514 317.37 469.881 322.635 466.277 328.23C462.435 334.129 458.916 340.234 455.737 346.516C454.078 349.792 452.619 353.212 451.117 356.703L446.683 367.363C440.839 380.789 435.749 394.532 431.437 408.527C427.964 419.978 425.57 431.728 424.286 443.625C423.455 451.654 423.321 459.74 423.886 467.792C424.115 470.653 424.329 472.843 424.529 474.331C424.615 475.046 424.672 475.618 424.73 476.033V476.62C424.668 476.434 424.625 476.242 424.601 476.048C424.529 475.633 424.444 475.075 424.329 474.359C424.072 472.928 423.8 470.668 423.543 467.806C422.853 459.739 422.9 451.626 423.686 443.568C424.89 431.62 427.232 419.815 430.679 408.313C434.955 394.279 440.031 380.501 445.882 367.048L450.431 356.431C451.932 352.954 453.405 349.506 455.079 346.215C458.28 339.914 461.828 333.795 465.705 327.886C469.367 322.163 473.056 316.983 476.532 312.147C480.007 307.311 483.368 302.79 486.543 298.841C491.588 292.574 497.121 286.718 503.091 281.327C505.208 279.424 506.895 277.994 508.039 277.035L509.369 275.962C509.532 275.82 509.71 275.695 509.899 275.59Z" fill="#263238"/>
<path d="M455.265 346.187C455.063 345.597 454.924 344.988 454.85 344.369C454.621 343.182 454.364 341.508 454.064 339.333C453.449 335.041 452.819 329.16 452.147 322.65C451.475 316.139 450.717 310.244 450.088 305.995C449.759 303.877 449.473 302.175 449.272 300.987C449.116 300.379 449.035 299.755 449.029 299.127C449.276 299.7 449.453 300.301 449.558 300.915C449.873 302.089 450.231 303.777 450.631 305.909C451.446 310.202 452.247 316.039 452.919 322.564C453.592 329.088 454.164 334.812 454.607 339.261C454.822 341.265 455.008 342.967 455.151 344.327C455.262 344.94 455.3 345.564 455.265 346.187Z" fill="#263238"/>
<path d="M510.3 335.913C509.604 336.065 508.895 336.151 508.183 336.171C506.753 336.3 504.722 336.471 502.205 336.757C497.171 337.301 490.248 338.303 482.654 339.734C475.06 341.164 468.238 342.781 463.332 344.026C460.886 344.656 458.913 345.228 457.611 345.614C456.916 345.861 456.197 346.034 455.466 346.129C456.127 345.797 456.816 345.524 457.525 345.314C458.87 344.842 460.815 344.183 463.246 343.482C468.123 342.052 474.945 340.349 482.568 338.889C489.026 337.654 495.541 336.747 502.091 336.171C504.622 335.956 506.667 335.87 508.098 335.842C508.832 335.792 509.57 335.816 510.3 335.913Z" fill="#263238"/>
<path d="M431.381 407.311C431.228 407.104 431.103 406.878 431.009 406.639L430.065 404.65C429.25 402.919 428.148 400.358 426.833 397.224C424.172 390.928 420.783 382.115 417.179 372.328C413.574 362.541 410.256 353.727 407.739 347.36C406.509 344.269 405.494 341.737 404.736 339.848L403.935 337.802C403.824 337.566 403.747 337.316 403.706 337.058C403.859 337.265 403.984 337.491 404.078 337.731L405.022 339.719C405.823 341.451 406.938 344.012 408.254 347.145C410.914 353.441 414.304 362.255 417.908 372.042C421.512 381.828 424.83 390.642 427.347 397.009C428.577 400.1 429.593 402.633 430.337 404.521C430.666 405.337 430.937 405.952 431.152 406.567C431.263 406.803 431.34 407.054 431.381 407.311Z" fill="#263238"/>
<path d="M504.435 383.746C504.206 383.877 503.96 383.978 503.705 384.046L501.589 384.761L493.765 387.294C487.158 389.44 478.033 392.502 468.022 395.879C458.01 399.256 448.842 402.26 442.192 404.264C438.874 405.279 436.171 406.052 434.297 406.567L432.138 407.125C431.886 407.205 431.628 407.258 431.365 407.283C431.594 407.151 431.839 407.05 432.095 406.982L434.211 406.267L442.035 403.734C448.642 401.588 457.767 398.526 467.778 395.149C477.79 391.773 486.943 388.768 493.594 386.765C496.926 385.749 499.615 384.976 501.503 384.461L503.662 383.903C503.913 383.823 504.172 383.77 504.435 383.746Z" fill="#263238"/>
<path d="M474.629 36.6719L467.264 39.3046L464.103 29.6752C458.296 11.9187 439.789 2.4896 422.784 8.48474C405.779 14.4799 396.726 33.9533 402.532 51.7098L405.693 61.3392L398.299 63.9862C395.479 65.0803 393.19 67.2193 391.906 69.9587C390.622 72.698 390.443 75.8269 391.405 78.6951L411.9 141.351C412.326 142.77 413.032 144.09 413.977 145.232C414.923 146.373 416.088 147.313 417.403 147.995C418.719 148.677 420.158 149.087 421.635 149.202C423.112 149.317 424.597 149.133 426.002 148.662L502.332 121.348C505.189 120.256 507.511 118.098 508.81 115.328C510.109 112.558 510.284 109.392 509.298 106.496L488.788 43.8403C488.352 42.4244 487.635 41.111 486.68 39.9785C485.725 38.846 484.552 37.9175 483.23 37.2484C481.909 36.5794 480.466 36.1836 478.988 36.0845C477.511 35.9855 476.028 36.1852 474.629 36.6719ZM416.448 46.6876C414.883 42.0707 415.164 37.0267 417.233 32.6124C419.301 28.1982 422.998 24.7562 427.547 23.0076C429.793 22.2387 432.171 21.9304 434.539 22.101C436.907 22.2716 439.216 22.9177 441.329 24.0007C443.442 25.0836 445.316 26.5813 446.838 28.4044C448.359 30.2274 449.498 32.3384 450.187 34.6115L453.333 44.2409L419.595 56.3171L416.448 46.6876ZM459.355 102.289L464.589 118.286C464.685 118.607 464.654 118.952 464.502 119.25C464.351 119.549 464.09 119.777 463.774 119.888L456.437 122.507C456.145 122.588 455.833 122.553 455.566 122.409C455.3 122.264 455.099 122.023 455.007 121.734L449.729 105.809C446.819 105.65 444.027 104.606 441.727 102.816C439.426 101.026 437.727 98.576 436.857 95.7934C435.613 92.1146 435.84 88.0971 437.491 84.582C439.141 81.0668 442.086 78.3266 445.71 76.9352C447.5 76.3235 449.394 76.0786 451.28 76.2148C453.166 76.3511 455.005 76.8659 456.688 77.7284C458.371 78.5909 459.863 79.7836 461.076 81.2353C462.288 82.687 463.196 84.3681 463.745 86.1783C464.666 89.0049 464.742 92.0387 463.964 94.9079C463.187 97.7772 461.59 100.357 459.369 102.332L459.355 102.289Z" fill="#139E10"/>
<path d="M466.934 39.133C466.934 39.3333 453.276 44.47 436.285 50.5796C419.294 56.6892 405.435 61.5969 405.364 61.4538C405.292 61.3107 419.022 56.1312 436.027 50.0072C453.032 43.8833 466.863 38.947 466.934 39.133Z" fill="#263238"/>
<path d="M483.154 41.7656C483.217 41.8898 483.269 42.019 483.311 42.1519C483.425 42.4381 483.554 42.8101 483.726 43.268C484.098 44.3125 484.612 45.7576 485.256 47.5604L490.748 63.557C493.036 70.3391 495.768 78.3803 498.8 87.3086C500.23 91.7871 501.918 96.4516 503.491 101.359C504.333 103.888 504.697 106.552 504.564 109.214C504.443 110.599 504.049 111.946 503.405 113.178C502.718 114.406 501.8 115.489 500.702 116.369C498.493 117.982 496.04 119.233 493.437 120.074L486.071 122.721L472.127 127.715L448.514 136.128L432.567 141.737L428.276 143.168L427.132 143.54C427.01 143.594 426.879 143.628 426.746 143.64C426.746 143.64 426.861 143.64 427.104 143.468L428.219 143.025L432.51 141.408L448.371 135.57L471.941 126.985L485.857 121.949L493.222 119.287C495.752 118.48 498.133 117.267 500.273 115.696C501.295 114.88 502.149 113.874 502.79 112.734C503.396 111.595 503.761 110.343 503.863 109.057C503.995 106.492 503.645 103.925 502.833 101.488C501.289 96.6233 499.658 91.9159 498.185 87.4374C495.21 78.4948 492.464 70.4249 490.29 63.6429C488.116 56.8608 486.286 51.4094 485.027 47.5748C484.426 45.7004 483.969 44.2409 483.597 43.1821L483.254 42.0375C483.211 41.9508 483.177 41.8596 483.154 41.7656Z" fill="#263238"/>
<path d="M442.878 22.0348C442.878 22.0348 442.12 21.6628 440.719 21.0905C438.721 20.3225 436.608 19.8968 434.469 19.8313C431.298 19.7226 428.142 20.3188 425.23 21.5769C421.688 23.1437 418.659 25.6778 416.491 28.8884C414.309 32.0899 413.138 35.8733 413.13 39.7484C413.16 42.9244 413.641 46.08 414.56 49.1202C415.304 51.7243 416.076 53.799 416.591 55.2441C416.895 55.9782 417.143 56.7338 417.335 57.5048C416.929 56.8185 416.589 56.0951 416.319 55.3443C415.733 53.9135 414.889 51.8817 414.06 49.2633C413.041 46.1912 412.487 42.9842 412.415 39.7484C412.377 35.7269 413.575 31.7909 415.847 28.4735C418.091 25.1456 421.243 22.5331 424.929 20.9474C427.933 19.6823 431.187 19.1242 434.44 19.3162C436.626 19.4277 438.773 19.9368 440.776 20.8186C441.312 21.0658 441.828 21.3528 442.321 21.6771C442.524 21.7665 442.712 21.8872 442.878 22.0348Z" fill="#263238"/>
<path d="M443.537 78.0223C443.765 77.8839 444.004 77.7643 444.252 77.6646C444.968 77.3414 445.709 77.0782 446.469 76.8776C447.674 76.5217 448.918 76.3104 450.173 76.2481C451.88 76.1563 453.589 76.4143 455.193 77.0064C458.854 78.2942 462.215 82.0286 463.874 87.0222C464.67 89.7019 464.67 92.5553 463.874 95.2351C462.992 98.1436 461.411 100.792 459.269 102.947L459.355 102.561C461.257 107.783 463.331 113.449 465.476 119.359L465.605 119.716L465.247 119.845L461.972 120.933L454.821 123.322L454.463 123.437L454.349 123.079C452.39 117.155 450.244 111.632 448.628 106.209L448.943 106.453C446.147 106.22 443.481 105.17 441.277 103.434C439.283 101.897 437.648 99.944 436.486 97.7104C435.437 95.7296 434.915 93.5124 434.97 91.2717C435.036 88.9816 435.607 86.7345 436.643 84.6913C437.679 82.648 439.154 80.8593 440.962 79.4531C441.707 78.8487 442.542 78.3658 443.437 78.0223C442.629 78.5018 441.846 79.0224 441.091 79.5819C439.105 81.2629 437.583 83.4256 436.672 85.8632C435.889 87.7013 435.523 89.6899 435.6 91.6863C435.676 93.6826 436.194 95.6373 437.115 97.4099C438.258 99.5587 439.853 101.433 441.792 102.904C443.894 104.555 446.436 105.55 449.1 105.766H449.343L449.415 105.981C450.988 111.303 453.148 116.869 455.136 122.821L454.664 122.592L461.815 120.203L465.076 119.101L464.847 119.588C462.716 113.678 460.656 107.998 458.768 102.775V102.561L458.94 102.389C461.019 100.323 462.57 97.7853 463.459 94.9918C464.218 92.4284 464.218 89.7 463.459 87.1366C461.901 82.3291 458.683 78.6805 455.193 77.3927C453.648 76.7968 451.999 76.5194 450.344 76.5772C449.109 76.6055 447.881 76.7735 446.683 77.078C444.552 77.6074 443.551 78.0938 443.537 78.0223Z" fill="#263238"/>
<path d="M399.329 491.157L256.465 490.499C248.215 490.454 240.32 487.134 234.514 481.27C228.709 475.405 225.467 467.475 225.501 459.222L227.017 100.93C227.034 96.8407 227.856 92.7949 229.437 89.0238C231.018 85.2527 233.326 81.8302 236.229 78.952C239.133 76.0738 242.575 73.7963 246.359 72.2497C250.143 70.7031 254.194 69.9177 258.282 69.9384L401.131 70.5966C409.381 70.6382 417.278 73.9541 423.086 79.8159C428.894 85.6777 432.14 93.6061 432.109 101.86L430.593 460.137C430.576 464.228 429.754 468.275 428.174 472.048C426.594 475.82 424.286 479.245 421.383 482.125C418.48 485.006 415.038 487.286 411.254 488.836C407.47 490.385 403.418 491.174 399.329 491.157Z" fill="#455A64"/>
<path d="M400.916 82.9161H373.227C372.324 82.9328 371.433 83.1275 370.604 83.4889C369.776 83.8503 369.027 84.3715 368.4 85.0225C367.773 85.6736 367.281 86.4418 366.951 87.2834C366.621 88.1249 366.46 89.0232 366.477 89.9271V94.9493C366.494 95.8524 366.333 96.75 366.002 97.5907C365.672 98.4315 365.18 99.1988 364.552 99.8487C363.925 100.499 363.176 101.018 362.348 101.378C361.52 101.738 360.629 101.931 359.726 101.946L305.75 101.703C303.924 101.654 302.192 100.882 300.934 99.557C299.677 98.2318 298.996 96.4613 299.042 94.6345V89.6123C299.089 87.7879 298.41 86.0195 297.155 84.6947C295.901 83.3698 294.173 82.5965 292.349 82.544H282.609L258.367 82.4296C252.601 82.3952 247.057 84.6481 242.947 88.6948C238.838 92.7415 236.499 98.2523 236.442 104.021L235.012 453.742C234.999 456.603 235.549 459.44 236.632 462.089C237.714 464.737 239.308 467.147 241.321 469.18C243.334 471.213 245.728 472.829 248.366 473.936C251.004 475.043 253.833 475.62 256.694 475.633L399.257 476.291C402.12 476.305 404.957 475.754 407.606 474.67C410.256 473.586 412.666 471.991 414.699 469.976C416.732 467.96 418.349 465.563 419.456 462.923C420.564 460.282 421.141 457.449 421.154 454.586L422.584 104.865C422.618 99.0802 420.355 93.5188 416.292 89.403C412.229 85.2872 406.698 82.9539 400.916 82.9161Z" fill="white"/>
<path d="M381.737 429.632L275.73 429.174C274.628 429.174 273.742 427.972 273.756 426.513L273.87 398.769C273.87 397.338 274.771 396.108 275.873 396.108L381.88 396.594C382.49 396.7 383.036 397.037 383.404 397.536C383.772 398.034 383.933 398.656 383.854 399.27L383.753 426.985C383.753 428.459 382.838 429.646 381.737 429.632Z" fill="#139E10"/>
<path d="M296.874 185.721L260.09 185.554L260.059 192.307L296.844 192.474L296.874 185.721Z" fill="#139E10"/>
<path opacity="0.1" d="M296.874 185.721L260.09 185.554L260.059 192.307L296.844 192.474L296.874 185.721Z" fill="black"/>
<path d="M404.707 227.185C404.996 227.156 405.28 227.089 405.551 226.985C405.947 226.83 406.291 226.567 406.544 226.225C406.797 225.883 406.948 225.477 406.981 225.053C406.981 222.778 406.981 219.459 406.981 215.195C406.981 213.063 406.981 210.674 406.981 208.041C406.981 207.397 406.981 206.725 406.981 206.052C407.074 205.4 406.932 204.735 406.581 204.178C406.384 203.911 406.128 203.693 405.832 203.541C405.537 203.39 405.21 203.309 404.879 203.305H402.648H381.981L262.358 202.861C262.052 202.856 261.749 202.925 261.475 203.062C261.201 203.199 260.965 203.4 260.785 203.648C260.44 204.208 260.308 204.874 260.413 205.523C260.413 206.954 260.413 208.384 260.413 209.815C260.413 212.677 260.413 215.538 260.413 218.4C260.413 219.831 260.413 221.262 260.413 222.693C260.354 223.359 260.354 224.029 260.413 224.696C260.488 224.981 260.628 225.246 260.821 225.469C261.015 225.693 261.257 225.868 261.529 225.983C261.811 226.096 262.112 226.149 262.415 226.141H269.695L301.46 226.313L355.236 226.642L391.492 226.928L401.346 227.042H403.906C404.493 227.042 404.779 227.042 404.779 227.042H403.906H401.346H391.492H355.236L301.46 226.871L269.695 226.742H262.415C262.015 226.758 261.615 226.69 261.243 226.541C260.866 226.381 260.531 226.136 260.264 225.826C259.996 225.516 259.802 225.149 259.698 224.753C259.615 224.377 259.586 223.992 259.612 223.608V222.55C259.612 221.119 259.612 219.688 259.612 218.257C259.612 215.395 259.612 212.534 259.612 209.672C259.612 208.241 259.612 206.81 259.612 205.38C259.585 204.999 259.585 204.616 259.612 204.235C259.666 203.814 259.829 203.415 260.084 203.076C260.331 202.731 260.657 202.45 261.036 202.258C261.415 202.066 261.834 201.969 262.258 201.974L381.881 202.632L402.547 202.776H404.779C405.172 202.776 405.559 202.871 405.907 203.053C406.256 203.235 406.556 203.498 406.781 203.82C407.184 204.442 407.347 205.19 407.239 205.923C407.239 206.596 407.239 207.268 407.239 207.912C407.239 210.516 407.239 212.906 407.239 215.066C407.239 219.359 407.138 222.65 407.11 224.939C407.075 225.379 406.915 225.8 406.649 226.153C406.383 226.505 406.022 226.774 405.608 226.928C405.337 227.096 405.025 227.185 404.707 227.185Z" fill="#E0E0E0"/>
<path d="M338.417 210.044H271.14V216.354H338.417V210.044Z" fill="#139E10"/>
<path opacity="0.2" d="M338.417 210.044H271.14V216.354H338.417V210.044Z" fill="white"/>
<path d="M296.623 247.33L259.839 247.163L259.808 253.916L296.593 254.083L296.623 247.33Z" fill="#139E10"/>
<path opacity="0.1" d="M296.623 247.33L259.839 247.163L259.808 253.916L296.593 254.083L296.623 247.33Z" fill="black"/>
<path d="M403.777 288.796C404.066 288.761 404.353 288.708 404.636 288.639C405.035 288.512 405.403 288.3 405.713 288.019C406.024 287.738 406.271 287.393 406.438 287.008C406.663 286.43 406.751 285.808 406.695 285.191C406.695 284.504 406.695 283.76 406.695 282.93C406.695 281.27 406.695 279.382 406.695 277.207V268.121C406.763 267.463 406.618 266.801 406.28 266.232C405.928 265.649 405.373 265.216 404.721 265.016C404.009 264.889 403.284 264.85 402.562 264.902H381.981L262.773 264.458C262.132 264.46 261.513 264.694 261.032 265.118C260.55 265.541 260.239 266.126 260.156 266.762C260.156 268.121 260.156 269.623 260.156 271.054C260.156 273.916 260.156 276.777 260.156 279.639C260.156 281.07 260.156 282.501 260.156 283.932C260.102 284.6 260.131 285.273 260.242 285.935C260.42 286.515 260.788 287.019 261.286 287.366C261.814 287.701 262.434 287.861 263.059 287.823H265.047H269.18L300.831 287.981L354.421 288.31L390.548 288.596L400.374 288.71H390.548H354.421L300.802 288.653L269.152 288.539H262.93C262.157 288.585 261.389 288.379 260.742 287.952C260.091 287.501 259.616 286.839 259.398 286.078C259.27 285.351 259.231 284.611 259.283 283.874C259.283 282.443 259.283 281.013 259.283 279.582C259.283 276.72 259.283 273.859 259.283 270.997C259.283 269.566 259.283 268.135 259.283 266.704C259.388 265.886 259.787 265.134 260.405 264.589C261.024 264.044 261.82 263.743 262.644 263.743L381.852 264.401L402.433 264.558C403.199 264.511 403.969 264.564 404.721 264.716C405.464 264.959 406.091 265.468 406.481 266.146C406.851 266.777 407.011 267.508 406.938 268.235C406.938 268.908 406.938 269.566 406.938 270.224C406.938 272.814 406.938 275.189 406.938 277.378C406.938 279.568 406.938 281.413 406.938 283.102C406.938 283.917 406.938 284.676 406.938 285.377C406.99 286.017 406.887 286.659 406.638 287.251C406.452 287.646 406.184 287.996 405.85 288.277C405.517 288.559 405.127 288.765 404.707 288.882C404.395 288.908 404.08 288.879 403.777 288.796Z" fill="#E0E0E0"/>
<path d="M296.346 311.615L259.562 311.448L259.531 318.201L296.316 318.368L296.346 311.615Z" fill="#139E10"/>
<path opacity="0.1" d="M296.346 311.615L259.562 311.448L259.531 318.201L296.316 318.368L296.346 311.615Z" fill="black"/>
<path d="M403.49 353.055C403.78 353.02 404.066 352.968 404.349 352.897C404.746 352.771 405.113 352.561 405.423 352.282C405.734 352.004 405.982 351.662 406.151 351.28C406.375 350.702 406.463 350.081 406.408 349.463C406.408 348.762 406.408 348.032 406.408 347.188C406.408 345.543 406.408 343.64 406.408 341.465V332.379C406.476 331.721 406.331 331.059 405.993 330.491C405.632 329.918 405.08 329.492 404.434 329.289C403.723 329.156 402.997 329.113 402.275 329.16H381.694L262.486 328.716C261.845 328.718 261.226 328.952 260.745 329.376C260.263 329.8 259.952 330.384 259.869 331.02C259.869 332.451 259.869 333.882 259.869 335.312C259.869 338.174 259.869 341.036 259.869 343.897C259.869 345.328 259.869 346.759 259.869 348.19C259.816 348.854 259.844 349.522 259.955 350.179C260.126 350.762 260.495 351.268 260.999 351.609C261.524 351.952 262.147 352.113 262.772 352.067H268.994L300.644 352.239L354.234 352.568L390.361 352.854L400.187 352.969H390.361H354.234L300.644 352.811L268.994 352.683H262.772C261.998 352.735 261.228 352.529 260.584 352.096C259.933 351.645 259.458 350.983 259.24 350.222C259.111 349.495 259.073 348.755 259.125 348.018C259.125 346.587 259.125 345.156 259.125 343.726C259.125 340.864 259.125 338.002 259.125 335.141C259.125 333.71 259.125 332.279 259.125 330.777C259.226 329.96 259.622 329.208 260.238 328.663C260.855 328.117 261.649 327.816 262.472 327.815L381.68 328.473L402.261 328.631C403.027 328.583 403.796 328.636 404.549 328.788C405.292 329.031 405.919 329.541 406.308 330.219C406.678 330.849 406.838 331.58 406.766 332.308C406.766 332.98 406.766 333.653 406.766 334.297C406.766 336.886 406.766 339.261 406.766 341.451C406.766 343.64 406.766 345.486 406.766 347.174C406.766 347.989 406.766 348.748 406.766 349.449C406.821 350.089 406.717 350.733 406.465 351.323C406.28 351.718 406.011 352.068 405.678 352.35C405.345 352.631 404.955 352.837 404.535 352.954C404.199 353.069 403.842 353.104 403.49 353.055Z" fill="#E0E0E0"/>
<path d="M336.98 273.439L269.704 273.134L269.675 279.444L336.952 279.749L336.98 273.439Z" fill="#139E10"/>
<path opacity="0.2" d="M336.98 273.439L269.704 273.134L269.675 279.444L336.952 279.749L336.98 273.439Z" fill="white"/>
<path d="M275.788 341.379C275.746 341.955 275.536 342.505 275.183 342.962C274.831 343.419 274.353 343.763 273.808 343.951C273.262 344.138 272.673 344.162 272.115 344.018C271.556 343.874 271.052 343.569 270.665 343.141C270.278 342.713 270.025 342.181 269.937 341.611C269.85 341.04 269.932 340.457 270.173 339.932C270.413 339.408 270.803 338.966 271.293 338.661C271.782 338.356 272.351 338.202 272.927 338.217C273.724 338.261 274.471 338.618 275.007 339.21C275.542 339.802 275.823 340.581 275.788 341.379Z" fill="#139E10"/>
<path d="M284.898 341.422C284.926 341.826 284.871 342.23 284.736 342.612C284.601 342.993 284.389 343.342 284.114 343.638C283.838 343.934 283.504 344.169 283.134 344.331C282.763 344.492 282.363 344.575 281.959 344.575C281.555 344.575 281.155 344.492 280.784 344.331C280.414 344.169 280.08 343.934 279.804 343.638C279.529 343.342 279.317 342.993 279.182 342.612C279.047 342.23 278.992 341.826 279.02 341.422C278.992 341.019 279.047 340.614 279.182 340.233C279.317 339.852 279.529 339.502 279.804 339.207C280.08 338.911 280.414 338.675 280.784 338.514C281.155 338.353 281.555 338.27 281.959 338.27C282.363 338.27 282.763 338.353 283.134 338.514C283.504 338.675 283.838 338.911 284.114 339.207C284.389 339.502 284.601 339.852 284.736 340.233C284.871 340.614 284.926 341.019 284.898 341.422Z" fill="#139E10"/>
<path d="M294.023 341.465C293.981 342.04 293.771 342.591 293.419 343.048C293.067 343.505 292.588 343.849 292.043 344.037C291.497 344.224 290.909 344.248 290.35 344.104C289.792 343.96 289.287 343.655 288.9 343.227C288.513 342.799 288.26 342.267 288.173 341.697C288.085 341.126 288.167 340.543 288.408 340.018C288.649 339.494 289.038 339.052 289.528 338.747C290.018 338.442 290.586 338.288 291.163 338.303C291.958 338.351 292.703 338.709 293.238 339.3C293.773 339.891 294.055 340.668 294.023 341.465Z" fill="#139E10"/>
<path d="M303.133 341.508C303.09 342.083 302.88 342.634 302.528 343.091C302.176 343.548 301.698 343.892 301.152 344.08C300.607 344.267 300.018 344.29 299.46 344.147C298.901 344.003 298.397 343.698 298.01 343.27C297.623 342.842 297.37 342.31 297.282 341.74C297.195 341.169 297.276 340.586 297.517 340.061C297.758 339.537 298.148 339.095 298.637 338.79C299.127 338.485 299.696 338.33 300.272 338.346C301.068 338.394 301.813 338.752 302.347 339.343C302.882 339.934 303.164 340.711 303.133 341.508Z" fill="#139E10"/>
<path d="M312.243 341.537C312.204 342.113 311.996 342.665 311.645 343.124C311.295 343.583 310.817 343.929 310.271 344.119C309.726 344.309 309.137 344.334 308.577 344.192C308.018 344.049 307.512 343.745 307.124 343.318C306.735 342.89 306.481 342.358 306.392 341.787C306.304 341.216 306.385 340.632 306.625 340.107C306.866 339.582 307.256 339.139 307.746 338.833C308.236 338.528 308.805 338.373 309.383 338.389C310.175 338.437 310.918 338.793 311.453 339.381C311.987 339.969 312.271 340.742 312.243 341.537Z" fill="#139E10"/>
<path d="M321.369 341.579C321.33 342.153 321.124 342.702 320.777 343.16C320.43 343.618 319.957 343.965 319.415 344.157C318.874 344.349 318.288 344.379 317.73 344.242C317.172 344.106 316.666 343.809 316.274 343.389C315.883 342.968 315.622 342.442 315.525 341.876C315.429 341.309 315.5 340.727 315.729 340.2C315.959 339.673 316.338 339.225 316.819 338.911C317.3 338.597 317.863 338.43 318.437 338.432C319.243 338.461 320.004 338.81 320.553 339.4C321.103 339.99 321.396 340.773 321.369 341.579Z" fill="#139E10"/>
<path d="M330.478 341.622C330.506 342.026 330.451 342.431 330.316 342.812C330.181 343.193 329.969 343.542 329.694 343.838C329.418 344.134 329.084 344.37 328.714 344.531C328.343 344.692 327.943 344.775 327.539 344.775C327.135 344.775 326.735 344.692 326.364 344.531C325.994 344.37 325.66 344.134 325.384 343.838C325.109 343.542 324.897 343.193 324.762 342.812C324.627 342.431 324.572 342.026 324.6 341.622C324.572 341.219 324.627 340.814 324.762 340.433C324.897 340.052 325.109 339.703 325.384 339.407C325.66 339.111 325.994 338.875 326.364 338.714C326.735 338.553 327.135 338.47 327.539 338.47C327.943 338.47 328.343 338.553 328.714 338.714C329.084 338.875 329.418 339.111 329.694 339.407C329.969 339.703 330.181 340.052 330.316 340.433C330.451 340.814 330.506 341.219 330.478 341.622Z" fill="#139E10"/>
<path d="M339.589 341.665C339.55 342.239 339.344 342.788 338.997 343.246C338.65 343.704 338.176 344.051 337.635 344.243C337.093 344.435 336.508 344.465 335.95 344.328C335.391 344.192 334.886 343.895 334.494 343.474C334.102 343.054 333.842 342.528 333.745 341.962C333.648 341.395 333.719 340.813 333.949 340.286C334.179 339.759 334.558 339.311 335.039 338.997C335.52 338.683 336.082 338.516 336.657 338.518C337.462 338.547 338.223 338.895 338.773 339.485C339.322 340.075 339.616 340.859 339.589 341.665Z" fill="#139E10"/>
<path d="M348.7 341.708C348.661 342.285 348.453 342.837 348.102 343.296C347.752 343.755 347.274 344.101 346.729 344.291C346.183 344.481 345.594 344.506 345.034 344.364C344.475 344.221 343.969 343.917 343.581 343.49C343.192 343.062 342.938 342.53 342.849 341.959C342.761 341.388 342.842 340.804 343.083 340.279C343.323 339.753 343.713 339.311 344.203 339.005C344.693 338.7 345.262 338.545 345.84 338.561C346.633 338.609 347.375 338.965 347.91 339.553C348.444 340.141 348.728 340.914 348.7 341.708Z" fill="#139E10"/>
<g opacity="0.2">
<path d="M275.788 341.379C275.746 341.955 275.536 342.505 275.183 342.962C274.831 343.419 274.353 343.763 273.808 343.951C273.262 344.138 272.673 344.162 272.115 344.018C271.556 343.874 271.052 343.569 270.665 343.141C270.278 342.713 270.025 342.181 269.937 341.611C269.85 341.04 269.932 340.457 270.173 339.932C270.413 339.408 270.803 338.966 271.293 338.661C271.782 338.356 272.351 338.202 272.927 338.217C273.724 338.261 274.471 338.618 275.007 339.21C275.542 339.802 275.823 340.581 275.788 341.379Z" fill="white"/>
<path d="M284.898 341.422C284.926 341.825 284.871 342.23 284.736 342.611C284.601 342.992 284.389 343.342 284.114 343.637C283.838 343.933 283.504 344.169 283.134 344.33C282.763 344.491 282.363 344.575 281.959 344.575C281.555 344.575 281.155 344.491 280.784 344.33C280.414 344.169 280.08 343.933 279.804 343.637C279.529 343.342 279.317 342.992 279.182 342.611C279.047 342.23 278.992 341.825 279.02 341.422C278.992 341.018 279.047 340.614 279.182 340.232C279.317 339.851 279.529 339.502 279.804 339.206C280.08 338.911 280.414 338.675 280.784 338.513C281.155 338.352 281.555 338.269 281.959 338.269C282.363 338.269 282.763 338.352 283.134 338.513C283.504 338.675 283.838 338.911 284.114 339.206C284.389 339.502 284.601 339.851 284.736 340.232C284.871 340.614 284.926 341.018 284.898 341.422Z" fill="white"/>
<path d="M294.023 341.465C293.981 342.04 293.771 342.591 293.419 343.048C293.067 343.505 292.588 343.849 292.043 344.037C291.497 344.224 290.909 344.248 290.35 344.104C289.792 343.96 289.287 343.655 288.9 343.227C288.513 342.799 288.26 342.267 288.173 341.697C288.085 341.126 288.167 340.543 288.408 340.018C288.649 339.494 289.038 339.052 289.528 338.747C290.018 338.442 290.586 338.288 291.163 338.303C291.958 338.351 292.703 338.709 293.238 339.3C293.773 339.891 294.055 340.668 294.023 341.465Z" fill="white"/>
<path d="M303.135 341.508C303.092 342.083 302.882 342.634 302.53 343.091C302.178 343.548 301.7 343.892 301.154 344.08C300.609 344.267 300.02 344.29 299.462 344.147C298.903 344.003 298.399 343.698 298.012 343.27C297.625 342.842 297.372 342.31 297.284 341.74C297.197 341.169 297.278 340.586 297.519 340.061C297.76 339.537 298.15 339.095 298.639 338.79C299.129 338.485 299.698 338.33 300.274 338.346C301.07 338.394 301.815 338.752 302.349 339.343C302.884 339.934 303.166 340.711 303.135 341.508Z" fill="white"/>
<path d="M312.245 341.537C312.206 342.113 311.998 342.665 311.647 343.124C311.297 343.583 310.819 343.929 310.273 344.119C309.728 344.309 309.139 344.334 308.579 344.192C308.02 344.049 307.514 343.745 307.126 343.318C306.737 342.89 306.483 342.358 306.394 341.787C306.306 341.216 306.387 340.632 306.627 340.107C306.868 339.582 307.258 339.139 307.748 338.833C308.238 338.528 308.807 338.373 309.385 338.389C310.177 338.437 310.92 338.793 311.455 339.381C311.989 339.969 312.273 340.742 312.245 341.537Z" fill="white"/>
<path d="M321.369 341.579C321.33 342.153 321.124 342.702 320.777 343.16C320.43 343.618 319.957 343.965 319.415 344.157C318.874 344.349 318.288 344.379 317.73 344.242C317.172 344.106 316.666 343.809 316.274 343.389C315.883 342.968 315.622 342.442 315.525 341.876C315.429 341.309 315.5 340.727 315.729 340.2C315.959 339.673 316.338 339.225 316.819 338.911C317.3 338.597 317.863 338.43 318.437 338.432C319.243 338.461 320.004 338.81 320.553 339.4C321.103 339.99 321.396 340.773 321.369 341.579Z" fill="white"/>
<path d="M330.48 341.622C330.508 342.025 330.453 342.43 330.318 342.811C330.183 343.192 329.971 343.542 329.696 343.838C329.42 344.133 329.086 344.369 328.716 344.53C328.345 344.691 327.945 344.775 327.541 344.775C327.137 344.775 326.737 344.691 326.366 344.53C325.996 344.369 325.662 344.133 325.386 343.838C325.111 343.542 324.899 343.192 324.764 342.811C324.629 342.43 324.574 342.025 324.602 341.622C324.574 341.219 324.629 340.814 324.764 340.433C324.899 340.051 325.111 339.702 325.386 339.406C325.662 339.111 325.996 338.875 326.366 338.714C326.737 338.552 327.137 338.469 327.541 338.469C327.945 338.469 328.345 338.552 328.716 338.714C329.086 338.875 329.42 339.111 329.696 339.406C329.971 339.702 330.183 340.051 330.318 340.433C330.453 340.814 330.508 341.219 330.48 341.622Z" fill="white"/>
<path d="M339.59 341.665C339.551 342.239 339.345 342.788 338.998 343.246C338.651 343.704 338.177 344.051 337.636 344.243C337.094 344.435 336.509 344.465 335.951 344.328C335.392 344.192 334.886 343.895 334.495 343.474C334.103 343.054 333.843 342.528 333.746 341.962C333.649 341.395 333.72 340.813 333.95 340.286C334.18 339.759 334.559 339.311 335.04 338.997C335.521 338.683 336.083 338.516 336.658 338.518C337.463 338.547 338.224 338.895 338.774 339.485C339.323 340.075 339.617 340.859 339.59 341.665Z" fill="white"/>
<path d="M348.7 341.708C348.661 342.284 348.453 342.836 348.102 343.296C347.752 343.755 347.274 344.101 346.729 344.29C346.183 344.48 345.594 344.506 345.034 344.363C344.475 344.221 343.969 343.917 343.581 343.489C343.192 343.062 342.938 342.529 342.849 341.959C342.761 341.388 342.842 340.803 343.083 340.278C343.323 339.753 343.713 339.31 344.203 339.005C344.693 338.699 345.262 338.545 345.84 338.56C346.633 338.608 347.375 338.964 347.91 339.552C348.444 340.14 348.728 340.914 348.7 341.708Z" fill="white"/>
</g>
<path d="M335.756 135.155C336.749 134.718 337.592 133.997 338.18 133.084C338.767 132.171 339.073 131.105 339.06 130.019C339.097 129.313 338.99 128.607 338.745 127.943C338.501 127.28 338.124 126.674 337.637 126.161C337.151 125.648 336.565 125.24 335.916 124.961C335.267 124.682 334.568 124.538 333.861 124.538C333.154 124.538 332.455 124.682 331.806 124.961C331.157 125.24 330.571 125.648 330.085 126.161C329.598 126.674 329.221 127.28 328.977 127.943C328.732 128.607 328.625 129.313 328.662 130.019C328.64 131.116 328.944 132.194 329.534 133.119C330.125 134.043 330.976 134.772 331.98 135.213C323.971 136.414 324.329 145.114 324.329 145.114L343.265 145.2C343.265 145.2 343.708 136.343 335.756 135.155Z" fill="#139E10"/>
<path opacity="0.1" d="M335.756 135.155C336.749 134.718 337.592 133.997 338.18 133.084C338.767 132.171 339.073 131.105 339.06 130.019C339.097 129.313 338.99 128.607 338.745 127.943C338.501 127.28 338.124 126.674 337.637 126.161C337.151 125.648 336.565 125.24 335.916 124.961C335.267 124.682 334.568 124.538 333.861 124.538C333.154 124.538 332.455 124.682 331.806 124.961C331.157 125.24 330.571 125.648 330.085 126.161C329.598 126.674 329.221 127.28 328.977 127.943C328.732 128.607 328.625 129.313 328.662 130.019C328.64 131.116 328.944 132.194 329.534 133.119C330.125 134.043 330.976 134.772 331.98 135.213C323.971 136.414 324.329 145.114 324.329 145.114L343.265 145.2C343.265 145.2 343.708 136.343 335.756 135.155Z" fill="black"/>
<path d="M366.527 150.81L299.036 150.504L299 158.574L366.49 158.88L366.527 150.81Z" fill="#139E10"/>
<path opacity="0.2" d="M366.527 150.81L299.036 150.504L299 158.574L366.49 158.88L366.527 150.81Z" fill="white"/>
<path d="M188.029 592.775V580.541L166.104 580.384L165.918 598.884L167.277 598.984C173.326 599.371 198.055 599.943 202.117 598.684C206.636 597.282 188.029 592.775 188.029 592.775Z" fill="#139E10"/>
<path d="M202.631 597.539C202.631 597.739 194.422 597.911 184.31 597.911C174.199 597.911 165.989 597.739 165.989 597.539C165.989 597.339 174.199 597.167 184.31 597.167C194.422 597.167 202.631 597.339 202.631 597.539Z" fill="#263238"/>
<path d="M188.415 595.279C188.229 595.178 188.415 594.534 188.859 593.848C189.302 593.161 189.903 592.875 190.046 593.018C190.189 593.161 189.888 593.705 189.459 594.291C189.03 594.878 188.601 595.379 188.415 595.279Z" fill="#263238"/>
<path d="M189.818 596.08C189.618 596.08 189.718 595.278 190.147 594.52C190.576 593.762 191.148 593.304 191.305 593.418C191.463 593.533 191.205 594.177 190.805 594.849C190.404 595.522 190.004 596.151 189.818 596.08Z" fill="#263238"/>
<path d="M172.598 597.482C172.512 597.482 172.183 597.224 171.711 596.681C171.135 595.982 170.493 595.34 169.795 594.763C169.108 594.214 168.289 593.854 167.421 593.719C166.748 593.633 166.319 593.719 166.276 593.633C166.234 593.547 166.648 593.247 167.435 593.189C168.473 593.168 169.486 593.512 170.295 594.162C171.054 594.781 171.694 595.532 172.183 596.38C172.512 597.01 172.684 597.425 172.598 597.482Z" fill="#263238"/>
<path d="M188.487 592.975C188.587 593.146 188.215 593.576 187.586 593.805C186.957 594.034 186.399 593.948 186.37 593.805C186.342 593.662 186.785 593.361 187.329 593.161C187.872 592.96 188.373 592.803 188.487 592.975Z" fill="#263238"/>
<path d="M188.145 591.787C188.145 592.002 187.572 592.174 186.829 592.188C186.085 592.202 185.499 592.03 185.513 591.83C185.527 591.63 186.114 591.444 186.829 591.43C187.544 591.415 188.116 591.587 188.145 591.787Z" fill="#263238"/>
<path d="M242.019 592.774V580.541L220.094 580.383L219.908 598.698L221.267 598.798C227.317 599.184 252.059 599.943 256.107 598.683C260.626 597.281 242.019 592.774 242.019 592.774Z" fill="#139E10"/>
<path d="M256.623 597.568C256.623 597.768 248.428 597.94 238.302 597.94C228.176 597.94 219.995 597.768 219.995 597.568C219.995 597.368 228.19 597.196 238.302 597.196C248.413 597.196 256.623 597.368 256.623 597.568Z" fill="#263238"/>
<path d="M242.406 595.279C242.235 595.178 242.406 594.534 242.85 593.848C243.293 593.161 243.894 592.875 244.037 593.018C244.18 593.161 243.879 593.705 243.45 594.291C243.021 594.878 242.592 595.379 242.406 595.279Z" fill="#263238"/>
<path d="M243.808 596.08C243.622 596.08 243.708 595.278 244.151 594.52C244.595 593.762 245.152 593.304 245.31 593.418C245.467 593.533 245.195 594.177 244.795 594.849C244.394 595.522 244.008 596.151 243.808 596.08Z" fill="#263238"/>
<path d="M226.588 597.482C226.502 597.482 226.188 597.224 225.701 596.681C225.125 595.982 224.484 595.34 223.785 594.763C223.098 594.214 222.28 593.854 221.411 593.719C220.753 593.633 220.31 593.719 220.267 593.633C220.224 593.547 220.639 593.247 221.425 593.189C222.463 593.168 223.476 593.512 224.286 594.162C225.048 594.777 225.688 595.529 226.173 596.38C226.502 597.01 226.674 597.425 226.588 597.482Z" fill="#263238"/>
<path d="M242.477 592.975C242.578 593.146 242.206 593.576 241.576 593.805C240.947 594.034 240.389 593.948 240.361 593.805C240.332 593.662 240.775 593.361 241.319 593.161C241.862 592.96 242.363 592.803 242.477 592.975Z" fill="#263238"/>
<path d="M242.162 591.787C242.162 592.002 241.59 592.174 240.847 592.188C240.103 592.202 239.531 592.03 239.545 591.83C239.559 591.63 240.132 591.444 240.847 591.43C241.562 591.415 242.162 591.587 242.162 591.787Z" fill="#263238"/>
<path d="M322.798 229.489C322.226 228.902 320.81 229.189 320.81 229.189C320.952 228.365 320.952 227.523 320.81 226.699C320.553 225.898 318.751 226.055 318.751 226.055C318.668 225.38 318.668 224.698 318.751 224.023C318.765 223.874 318.733 223.723 318.659 223.593C318.584 223.462 318.472 223.358 318.336 223.294C317.483 222.946 316.567 222.78 315.647 222.807C314.546 222.02 319.008 215.768 320.667 213.764C322.326 211.761 322.026 210.202 320.553 210.202C319.537 210.202 314.331 216.211 312.729 218.229C311.128 220.246 306.88 225.855 306.737 221.376C306.594 216.898 304.792 213.521 303.662 212.949C302.532 212.377 301.331 213.721 301.946 214.966C302.486 216.381 302.823 217.864 302.947 219.373C303.102 220.575 303.049 221.795 302.79 222.979C302.315 225.182 301.67 227.344 300.859 229.446H300.744C300.744 229.446 269.537 259.393 267.277 261.525C265.261 263.442 224.7 259.25 216.562 258.392C213.797 257.987 211.004 257.795 208.21 257.819C204.677 257.977 204.048 258.478 200.53 258.52C191.644 258.619 182.78 259.399 174.013 260.853C170.044 261.528 166.336 263.281 163.295 265.92C160.253 268.559 157.994 271.983 156.765 275.819C148.57 301.431 130.006 362.055 126.731 396.108C124.256 400.598 122.022 405.217 120.037 409.944C117.735 416.211 118.292 416.426 119.065 416.569C121.153 416.955 123.527 405.709 124.414 408.427C125.3 411.146 119.909 421.834 122.097 422.149C124.957 422.55 127.231 410.702 127.503 409.758C127.775 408.814 129.191 409.114 128.933 410.001C128.518 411.26 124.5 424.61 127.303 425.039C128.847 425.268 129.019 422.449 129.019 422.449C129.019 422.449 131.879 409.672 133.181 409.93C134.482 410.187 133.095 417.728 132.437 420.246C131.779 422.764 132.695 424.038 134.039 423.422C134.954 422.993 137.143 415.338 137.743 412.849C138.344 410.359 139.846 403.463 141.862 407.454C143.879 411.446 146.94 413.764 148.198 413.822C148.482 413.789 148.749 413.672 148.966 413.486C149.182 413.3 149.338 413.053 149.414 412.778C149.489 412.503 149.48 412.211 149.389 411.94C149.297 411.67 149.126 411.433 148.899 411.26C147.816 410.203 146.887 408.999 146.139 407.683C145.471 406.659 144.988 405.526 144.708 404.335C144.132 401.962 143.797 399.536 143.707 397.095L143.478 395.665C146.682 379.797 155.907 333.224 169.222 303.477L174.686 314.723L177.06 323.05L162.5 359.007L224.6 358.191L215.332 322.507L226.588 285.305C238.759 285.577 270.009 286.035 275.215 283.674C281.765 280.813 315.647 238.002 315.647 238.002C317.856 236.286 319.971 234.452 321.983 232.508C321.983 232.508 324.042 230.777 322.798 229.489Z" fill="#FFBE9D"/>
<path d="M159.769 332.437C161.571 326.284 170.825 295.865 170.825 295.865C170.825 295.865 175.373 320.661 174.171 323.652C173.066 326.212 171.761 328.68 170.267 331.035C159.769 347.017 161.142 355.015 161.142 355.015L224.572 353.084C224.715 344.212 219.466 323.58 218.379 320.289C217.292 316.998 220.911 306.224 220.911 306.224C220.911 306.224 228.062 298.941 227.804 295.193C227.668 291.825 227.252 288.475 226.56 285.177L265.176 286.608L263.96 260.424L208.496 254.872C206.566 260.323 189.103 257.648 189.103 257.648C170.252 258.277 169.08 261.74 161.242 267.835C153.405 273.931 140.433 326.241 140.433 326.241L159.769 332.437Z" fill="#139E10"/>
<path d="M197.269 326.241C196.17 326.438 195.05 326.495 193.936 326.413C191.863 326.413 189.017 326.27 185.884 325.955C182.752 325.64 179.92 325.197 177.904 324.796C176.792 324.653 175.702 324.374 174.657 323.966C175.775 323.967 176.891 324.072 177.99 324.281C180.021 324.539 182.838 324.896 185.956 325.211C189.074 325.526 191.906 325.741 193.951 325.884C195.066 325.898 196.177 326.017 197.269 326.241Z" fill="#263238"/>
<path d="M201.617 320.847C200.517 321.386 199.354 321.785 198.155 322.035C192.449 323.535 186.562 324.233 180.664 324.109C179.443 324.149 178.223 324.034 177.031 323.766C178.236 323.614 179.45 323.552 180.664 323.58C182.909 323.508 185.999 323.351 189.403 322.95C192.806 322.55 195.839 321.978 197.984 321.52C199.175 321.201 200.39 320.976 201.617 320.847Z" fill="#263238"/>
<path d="M222.955 296.781C222.926 297.872 222.777 298.956 222.511 300.014C222.14 302.003 221.568 304.722 220.838 307.698C220.109 310.674 219.408 313.421 218.779 315.281C218.526 316.346 218.151 317.378 217.663 318.358C217.743 317.27 217.944 316.195 218.264 315.152C218.807 312.92 219.422 310.345 220.109 307.526C220.795 304.707 221.453 302.132 221.997 299.9C222.19 298.826 222.512 297.778 222.955 296.781Z" fill="#263238"/>
<path d="M160.441 328.788C157.132 328.277 153.866 327.516 150.672 326.513C147.408 325.75 144.205 324.745 141.09 323.508C144.397 324.028 147.662 324.788 150.858 325.783C154.123 326.544 157.326 327.548 160.441 328.788Z" fill="#263238"/>
<path d="M227.245 284.862C226.705 284.955 226.154 284.955 225.614 284.862C224.121 284.709 222.654 284.357 221.252 283.817C218.913 282.938 216.783 281.578 215 279.826C213.216 278.074 211.819 275.969 210.898 273.644C209.879 271.087 209.444 268.335 209.625 265.589C209.689 263.323 210.366 261.118 211.584 259.207C212.441 257.92 213.721 256.974 215.203 256.532C215.598 256.422 216.008 256.369 216.418 256.374C216.704 256.374 216.847 256.374 216.847 256.374C216.847 256.374 216.247 256.374 215.288 256.761C213.929 257.263 212.777 258.205 212.013 259.436C210.068 262.498 209.525 268.093 211.598 273.315C212.564 275.778 214.075 277.989 216.018 279.783C217.61 281.25 219.444 282.431 221.438 283.274C223.31 284.014 225.257 284.546 227.245 284.862Z" fill="#263238"/>
<path d="M260.584 286.093C260.226 281.705 260.112 277.301 260.241 272.9C260.129 268.504 260.262 264.104 260.641 259.723C260.999 264.106 261.114 268.505 260.984 272.9C261.105 277.302 260.971 281.707 260.584 286.093Z" fill="#263238"/>
<path d="M208.123 256.475C208.281 253.284 208.61 249.678 208.61 249.678C208.61 249.678 216.504 248.805 216.976 240.65C217.448 232.494 216.976 213.679 216.976 213.679L202.674 206.353L186.799 218.844L189.244 259.622L203.804 260.552C204.917 260.583 205.997 260.171 206.806 259.407C207.616 258.642 208.09 257.588 208.123 256.475Z" fill="#FFBE9D"/>
<path d="M209.539 234.196C209.539 234.196 209.539 234.354 209.41 234.54C209.304 234.675 209.166 234.782 209.009 234.852C208.852 234.921 208.681 234.952 208.509 234.941C207.594 234.941 206.707 233.882 206.392 232.651C206.243 232.055 206.243 231.431 206.392 230.834C206.422 230.574 206.516 230.325 206.665 230.11C206.815 229.895 207.016 229.721 207.251 229.604C207.443 229.524 207.659 229.524 207.851 229.604C207.994 229.674 208.109 229.79 208.18 229.933C208.28 230.176 208.18 230.333 208.18 230.319C208.18 230.305 208.18 230.176 208.037 230.033C207.962 229.93 207.852 229.859 207.728 229.833C207.604 229.806 207.475 229.827 207.365 229.89C207.19 229.996 207.044 230.145 206.941 230.322C206.839 230.5 206.783 230.701 206.779 230.906C206.658 231.438 206.658 231.99 206.779 232.522C207.065 233.638 207.837 234.54 208.523 234.626C208.658 234.644 208.794 234.634 208.925 234.597C209.055 234.56 209.177 234.497 209.281 234.411C209.453 234.297 209.51 234.182 209.539 234.196Z" fill="#EB996E"/>
<path d="M221.882 209.272C220.781 205.523 216.791 203.663 213.158 202.633C207.623 201.059 201.645 200.372 196.239 202.361C190.832 204.35 184.339 207.841 184.339 213.808C181.15 213.55 179.319 216.34 178.061 219.803C177.256 221.912 176.774 224.131 176.63 226.384C176.23 234.197 174.042 244.985 168.979 250.708C166.118 253.899 162.157 256.103 160.526 260.08C159.096 263.529 159.84 267.621 158.51 271.112C157.323 274.188 154.705 276.377 152.789 279.053C150.836 282.088 149.687 285.57 149.45 289.172C149.212 292.774 149.893 296.377 151.43 299.642C152.978 302.824 155.157 305.658 157.835 307.97C160.512 310.282 163.632 312.025 167.005 313.092C173.686 315.125 180.81 315.195 187.529 313.292C192.571 312.086 197.275 309.753 201.287 306.467C205.392 303.114 208.212 298.443 209.268 293.247C210.283 287.409 208.653 281.471 207.437 275.662C203.633 257.304 204.72 256.346 209.525 239.305C209.64 239.004 209.697 238.689 209.783 238.389C209.868 238.089 209.911 237.945 209.969 237.717C210.105 237.043 210.177 236.358 210.183 235.67C209.481 235.932 208.719 235.987 207.987 235.83C207.255 235.673 206.583 235.31 206.05 234.783C205.516 234.222 205.143 233.527 204.972 232.771C204.801 232.016 204.837 231.228 205.077 230.491C205.415 229.685 205.918 228.959 206.553 228.36C207.189 227.761 207.943 227.303 208.767 227.014C210.355 226.356 212.057 226.012 213.616 225.283C216.919 223.709 219.208 220.447 220.767 217.027C222.048 214.657 222.444 211.907 221.882 209.272Z" fill="#263238"/>
<path d="M210.111 234.583C210.414 235.03 210.663 235.51 210.855 236.014C211.284 236.915 211.856 238.189 212.486 239.662L212.6 239.934H212.3L210.869 240.063C209.883 240.063 209.053 240.249 208.081 240.235C207.996 240.216 207.917 240.176 207.852 240.118C207.787 240.06 207.738 239.987 207.709 239.906C207.666 239.776 207.666 239.635 207.709 239.505C207.742 239.312 207.785 239.121 207.837 238.933L208.095 237.917C208.224 237.239 208.426 236.577 208.696 235.942C208.669 236.633 208.568 237.319 208.395 237.988L208.195 239.004C208.123 239.348 207.995 239.877 208.195 239.834C208.91 239.834 209.926 239.677 210.869 239.619L212.3 239.491L212.114 239.805C211.499 238.375 210.984 237.03 210.684 236.1C210.42 235.625 210.227 235.114 210.111 234.583Z" fill="#139E10"/>
<path d="M161.142 355.015L224.571 353.083L252.174 460.881L247.097 584.533H213.559L217.663 463.514L193.135 388.468L196.911 589.326L163.015 589.827L159.454 401.03C159.297 395.779 157.58 383.946 158.224 378.738L161.142 355.015Z" fill="#263238"/>
<path d="M201.574 389.999C200.536 390.064 199.494 390.002 198.471 389.813C196.554 389.584 193.937 389.183 191.062 388.611C188.188 388.038 185.613 387.38 183.754 386.851C182.76 386.632 181.799 386.286 180.894 385.821C180.894 385.606 185.556 386.722 191.277 387.881C196.998 389.04 201.603 389.784 201.574 389.999Z" fill="#455A64"/>
<path d="M246.754 577.751C246.754 577.951 239.16 578.123 229.792 578.123C220.424 578.123 212.815 577.951 212.815 577.751C212.815 577.551 220.41 577.379 229.792 577.379C239.174 577.379 246.754 577.536 246.754 577.751Z" fill="#455A64"/>
<path d="M196.612 584.103C196.612 584.318 189.232 584.475 180.136 584.475C171.039 584.475 163.674 584.318 163.674 584.103C163.674 583.889 171.054 583.731 180.136 583.731C189.217 583.731 196.612 583.903 196.612 584.103Z" fill="#455A64"/>
<path d="M192.235 583.589C192.035 583.589 191.148 539.705 190.247 485.577C189.346 431.449 188.817 387.538 189.003 387.538C189.189 387.538 190.104 431.407 190.991 485.563C191.878 539.72 192.45 583.589 192.235 583.589Z" fill="#455A64"/>
<path d="M242.248 577.751C242.232 577.556 242.232 577.359 242.248 577.164V575.447C242.248 573.902 242.362 571.684 242.448 568.865C242.648 563.142 242.934 554.829 243.292 544.642C244.064 524.152 245.151 495.908 246.338 464.73C246.338 464.43 246.338 464.144 246.338 463.886V463.986C238.83 433.939 232.036 406.668 227.102 386.937L221.381 363.6C220.723 360.867 220.223 358.735 219.865 357.247C219.694 356.546 219.579 356.002 219.479 355.587C219.423 355.401 219.39 355.209 219.379 355.015C219.453 355.195 219.511 355.382 219.551 355.573C219.665 355.974 219.808 356.517 220.008 357.204C220.394 358.635 220.952 360.81 221.667 363.528C223.097 369.051 225.114 377.007 227.631 386.808C232.608 406.525 239.473 433.724 247.082 463.815V463.915C247.082 464.172 247.082 464.473 247.082 464.759C245.809 495.937 244.651 524.167 243.807 544.656C243.364 554.858 242.992 563.114 242.734 568.865C242.591 571.727 242.477 573.902 242.405 575.447C242.405 576.177 242.319 576.749 242.305 577.164C242.307 577.361 242.288 577.558 242.248 577.751Z" fill="#455A64"/>
<path d="M231.308 461.368C228.899 462.161 226.417 462.712 223.899 463.014C220.81 463.543 218.179 463.915 216.992 463.972V463.686C217.378 463.801 217.578 463.872 217.578 463.929C217.578 463.987 217.335 463.929 216.934 463.929H216.076L216.934 463.672C218.05 463.343 220.681 462.799 223.771 462.241C226.248 461.703 228.773 461.411 231.308 461.368Z" fill="#455A64"/>
<path d="M230.72 465.474C228.489 465.576 226.254 465.476 224.041 465.174C221.807 465.128 219.581 464.884 217.391 464.444C221.86 464.079 226.36 464.427 230.72 465.474Z" fill="#455A64"/>
<path opacity="0.2" d="M160.87 357.29C161.621 358.255 162.568 359.051 163.647 359.625C164.726 360.2 165.915 360.54 167.134 360.624C169.689 360.927 172.273 360.879 174.815 360.481C191.191 358.664 208.539 356.99 224.572 353.083C203.819 354.242 181.894 353.856 161.142 355.015L160.927 356.789" fill="black"/>
<g opacity="0.2">
<path d="M182.251 386.55L193.95 431.965L193.135 388.468L182.251 386.55Z" fill="black"/>
</g>
</svg>
